HIERARCHY
ROOT Hips
{
 OFFSET 0.000000 0.000000 0.000000
 CHANNELS 6 Xposition Yposition Zposition Yrotation Xrotation Zrotation
 JOINT Chest
 {
  OFFSET 0.000000 9.585900 0.002600
  CHANNELS 3 Yrotation Xrotation Zrotation
  JOINT Chest2
  {
   OFFSET 0.000000 9.601200 -0.005300
   CHANNELS 3 Yrotation Xrotation Zrotation
   JOINT Chest3
   {
    OFFSET 0.000000 9.561800 0.000000
    CHANNELS 3 Yrotation Xrotation Zrotation
    JOINT Chest4
    {
     OFFSET 0.000000 9.552100 0.000000
     CHANNELS 3 Yrotation Xrotation Zrotation
     JOINT Neck
     {
      OFFSET 0.000000 14.453000 0.000000
      CHANNELS 3 Yrotation Xrotation Zrotation
      JOINT Head
      {
       OFFSET 0.000000 8.936500 -0.011300
       CHANNELS 3 Yrotation Xrotation Zrotation
       End Site
       {
        OFFSET 0.000000 17.073600 -0.006000
       }
      }
     }
     JOINT RightCollar
     {
      OFFSET -2.921100 9.558500 0.000000
      CHANNELS 3 Yrotation Xrotation Zrotation
      JOINT RightShoulder
      {
       OFFSET -13.519700 0.000000 0.000000
       CHANNELS 3 Yrotation Xrotation Zrotation
       JOINT RightElbow
       {
        OFFSET 0.000000 -29.696600 0.000000
        CHANNELS 3 Yrotation Xrotation Zrotation
        JOINT RightWrist
        {
         OFFSET 0.000000 -24.004700 0.000000
         CHANNELS 3 Yrotation Xrotation Zrotation
         End Site
         {
          OFFSET 0.000000 -17.728500 0.000000
         }
        }
       }
      }
     }
     JOINT LeftCollar
     {
      OFFSET 2.921100 9.558500 0.000000
      CHANNELS 3 Yrotation Xrotation Zrotation
      JOINT LeftShoulder
      {
       OFFSET 13.519700 0.000000 0.000000
       CHANNELS 3 Yrotation Xrotation Zrotation
       JOINT LeftElbow
       {
        OFFSET 0.000000 -29.696600 0.000000
        CHANNELS 3 Yrotation Xrotation Zrotation
        JOINT LeftWrist
        {
         OFFSET 0.000000 -24.004700 0.000000
         CHANNELS 3 Yrotation Xrotation Zrotation
         End Site
         {
          OFFSET 0.000000 -17.728500 0.000000
         }
        }
       }
      }
     }
    }
   }
  }
 }
 JOINT RightHip
 {
  OFFSET -7.771700 -0.012900 -0.001300
  CHANNELS 3 Yrotation Xrotation Zrotation
  JOINT RightKnee
  {
   OFFSET 0.000000 -40.869800 0.001200
   CHANNELS 3 Yrotation Xrotation Zrotation
   JOINT RightAnkle
   {
    OFFSET 0.000000 -39.717900 0.002100
    CHANNELS 3 Yrotation Xrotation Zrotation
    JOINT RightToe
    {
     OFFSET 0.000000 -4.965400 11.033500
     CHANNELS 3 Yrotation Xrotation Zrotation
     End Site
     {
      OFFSET 0.000000 -1.423100 5.872300
     }
    }
   }
  }
 }
 JOINT LeftHip
 {
  OFFSET 7.771700 -0.012900 -0.001300
  CHANNELS 3 Yrotation Xrotation Zrotation
  JOINT LeftKnee
  {
   OFFSET 0.000000 -40.869800 0.001200
   CHANNELS 3 Yrotation Xrotation Zrotation
   JOINT LeftAnkle
   {
    OFFSET 0.000000 -39.717900 0.002100
    CHANNELS 3 Yrotation Xrotation Zrotation
    JOINT LeftToe
    {
     OFFSET 0.000000 -4.965400 11.033500
     CHANNELS 3 Yrotation Xrotation Zrotation
     End Site
     {
      OFFSET 0.000000 -1.423100 5.872300
     }
    }
   }
  }
 }
}
MOTION
Frames: 8
Frame Time: 0.008333
-89.080476 57.333738 2.391750 165.692125 -12.816792 2.555269 3.173798 16.496503 4.004492 0.246749 1.745699 0.285137 0.398728 2.832364 0.479339 2.414165 14.721288 2.691855 1.698481 14.243124 -3.653908 4.590345 -9.141249 -7.517670 0.970296 0.284727 -6.952973 12.120001 -4.065973 -30.692802 49.878621 -69.909354 -21.061538 -5.420041 -5.347178 -65.595386 -8.136204 4.417436 4.304579 -8.499319 -9.136199 21.467498 -74.080385 -67.225062 45.931574 -1.777636 -11.368836 49.698193 -7.605486 -60.313977 -2.045730 -32.026841 71.468250 -35.614721 -4.213346 -4.179246 0.428209 -0.434946 0.882636 -0.084629 2.503195 -62.001042 6.694339 40.658892 62.841810 33.706101 -17.818333 -8.964715 4.305637 -0.236188 -1.221628 -0.107300
-89.094498 57.321898 2.403289 165.714002 -12.712198 2.568342 3.192955 16.516878 3.994928 0.248878 1.755239 0.284353 0.409903 2.886012 0.478038 2.417576 14.718332 2.678195 1.795258 14.210301 -3.639093 4.768967 -9.195396 -7.529100 0.856269 0.287725 -7.004058 12.121226 -4.021647 -30.525579 50.515562 -69.962448 -21.823005 -5.439285 -5.393573 -65.660555 -8.087461 4.465837 4.386257 -8.504508 -9.118240 21.433643 -74.432568 -67.362369 46.308700 -1.751827 -11.494960 49.870351 -7.600070 -60.429504 -2.065606 -31.930902 71.471118 -35.535523 -4.224498 -4.144761 0.431191 -0.453256 0.900424 -0.096278 2.640685 -62.137758 6.520461 40.642654 62.837134 33.761611 -17.795379 -8.938449 4.304023 -0.219493 -1.240537 -0.108832
-89.104689 57.310433 2.411858 165.730021 -12.627353 2.566540 3.225057 16.555608 4.005179 0.250983 1.764404 0.283648 0.423136 2.938929 0.477068 2.418915 14.713766 2.665893 1.894212 14.174989 -3.624438 4.951959 -9.253717 -7.541865 0.745855 0.291860 -7.052903 12.115867 -3.961561 -30.362100 51.053612 -70.042762 -22.461901 -5.413033 -5.445427 -65.757768 -8.040534 4.511900 4.468773 -8.525038 -9.095934 21.406070 -74.767184 -67.482162 46.654272 -1.702076 -11.617448 50.045329 -7.625148 -60.519358 -2.050353 -31.856496 71.469911 -35.467795 -4.244143 -4.119606 0.415853 -0.446654 0.921232 -0.100167 2.686702 -62.236764 6.455421 40.614469 62.839416 33.766932 -17.797126 -8.969435 4.312068 -0.207396 -1.219463 -0.112079
-89.114132 57.299768 2.416533 165.744877 -12.562583 2.568424 3.256232 16.613683 4.013455 0.253063 1.773414 0.283099 0.426538 2.953292 0.476176 2.429826 14.746519 2.656556 1.996153 14.137939 -3.611205 5.141250 -9.314850 -7.558674 0.642671 0.299953 -7.099922 12.104605 -3.888960 -30.206053 51.479994 -70.160402 -22.950800 -5.331637 -5.496280 -65.904819 -7.995362 4.553321 4.549102 -8.558594 -9.067897 21.387296 -75.075266 -67.600688 46.965301 -1.647480 -11.739692 50.226147 -7.633231 -60.594337 -2.058847 -31.802370 71.477460 -35.410241 -4.259796 -4.083233 0.393297 -0.453863 0.925200 -0.100896 2.741070 -62.316050 6.383464 40.585873 62.842865 33.772990 -17.794444 -8.987468 4.313520 -0.198481 -1.197424 -0.115552
-89.123073 57.289294 2.421074 165.769170 -12.494755 2.568094 3.276843 16.666011 4.022257 0.255181 1.782481 0.282706 0.430058 2.967725 0.475485 2.441149 14.779146 2.648415 2.100111 14.100190 -3.601209 5.335695 -9.376814 -7.582552 0.548218 0.317490 -7.145522 12.080227 -3.811906 -30.058304 52.018452 -70.280279 -23.578427 -5.283933 -5.540302 -66.018297 -7.949730 4.591454 4.626083 -8.595672 -9.038321 21.375532 -75.390333 -67.726752 47.282242 -1.607346 -11.857179 50.402389 -7.659357 -60.671097 -2.062965 -31.735107 71.487316 -35.342315 -4.268998 -4.049179 0.373729 -0.449053 0.929408 -0.104493 2.958345 -62.426650 6.150495 40.538758 62.851082 33.842747 -17.769181 -8.960527 4.322811 -0.233287 -1.237468 -0.127834
-89.132974 57.278509 2.428768 165.805617 -12.401594 2.569150 3.262879 16.631690 4.016633 0.274496 1.851063 0.286355 0.433991 2.981816 0.474855 2.454940 14.810695 2.641215 2.204277 14.062463 -3.594845 5.532069 -9.438352 -7.613414 0.458971 0.347494 -7.189599 12.034708 -3.736315 -29.913636 52.654929 -70.397788 -24.306727 -5.257994 -5.582971 -66.117844 -7.907474 4.631723 4.702293 -8.624738 -9.015371 21.366273 -75.747195 -67.853148 47.633385 -1.578699 -11.965775 50.571129 -7.701968 -60.774070 -2.060021 -31.667330 71.497209 -35.278695 -4.282601 -4.023543 0.363862 -0.459167 0.972113 -0.136208 3.129351 -62.548145 5.958510 40.541135 62.826932 33.921969 -17.806016 -8.940338 4.324295 -0.240315 -1.257465 -0.125110
-89.143751 57.268300 2.436562 165.825360 -12.299678 2.582072 3.263599 16.589888 4.002323 0.294470 1.917344 0.291276 0.438597 2.995152 0.474425 2.472803 14.839942 2.635543 2.307349 14.024286 -3.590958 5.727535 -9.500467 -7.648559 0.368915 0.386878 -7.231128 11.965559 -3.666788 -29.766900 53.409177 -70.487605 -25.162369 -5.263128 -5.638656 -66.189151 -7.874966 4.675979 4.781247 -8.636856 -9.004570 21.353686 -76.146082 -67.973291 48.009390 -1.553792 -12.058714 50.736062 -7.727561 -60.883976 -2.065619 -31.573862 71.505885 -35.192908 -4.288846 -4.006596 0.354539 -0.469198 0.983070 -0.140759 3.296005 -62.668593 5.788972 40.533628 62.813544 33.965780 -17.836359 -8.931733 4.327931 -0.224362 -1.268309 -0.114695
-89.153056 57.259505 2.441313 165.850565 -12.212041 2.592965 3.313609 16.703899 4.018089 0.272620 1.837816 0.284752 0.443690 3.007926 0.474384 2.493243 14.867304 2.631954 2.409827 13.984121 -3.589272 5.922940 -9.565914 -7.687811 0.279728 0.429070 -7.272252 11.880044 -3.604569 -29.618335 54.125438 -70.604358 -25.914166 -5.224055 -5.682704 -66.319868 -7.849984 4.723339 4.860544 -8.628080 -9.006585 21.337179 -76.568916 -68.086526 48.389672 -1.530229 -12.134138 50.890239 -7.789666 -60.982550 -2.051206 -31.455656 71.521054 -35.093116 -4.287960 -3.962901 0.323505 -0.486174 0.965483 -0.127764 3.444603 -62.769149 5.636672 40.540284 62.791067 34.010264 -17.883959 -8.920573 4.334591 -0.229001 -1.278677 -0.108335
